<?xml version="1.0" standalone="no"?>
<!DOCTYPE svg PUBLIC "-//W3C//DTD SVG 20010904//EN"
 "http://www.w3.org/TR/2001/REC-SVG-20010904/DTD/svg10.dtd">
<svg version="1.0" xmlns="http://www.w3.org/2000/svg"
 width="150.000000pt" height="150.000000pt" viewBox="0 0 150.000000 150.000000"
 preserveAspectRatio="xMidYMid meet">

<g transform="translate(0.000000,150.000000) scale(0.100000,-0.100000)"
fill="#000000" stroke="none">
<path d="M730 1335 l0 -55 38 1 c30 2 32 3 10 6 -20 3 -28 10 -28 24 0 16 5
19 20 14 11 -4 20 -2 20 4 0 6 -9 11 -20 11 -11 0 -20 7 -20 15 0 9 9 15 25
15 14 0 25 5 25 10 0 6 -16 10 -35 10 l-35 0 0 -55z"/>
<path d="M634 1356 c4 -18 1 -25 -14 -29 -23 -6 -30 0 -30 25 0 10 -4 18 -10
18 -12 0 -12 2 1 -60 6 -27 15 -50 21 -50 6 0 8 10 4 24 -4 18 -1 25 14 29 15
4 22 -1 26 -19 3 -13 11 -24 16 -24 6 0 7 7 4 16 -3 9 -9 33 -12 55 -4 21 -11
39 -16 39 -6 0 -7 -11 -4 -24z"/>
<path d="M868 1320 c-9 -27 -12 -52 -8 -55 5 -3 11 4 15 15 9 27 23 25 31 -5
3 -14 10 -25 15 -25 5 0 7 11 3 24 -4 16 -1 25 10 29 26 10 19 46 -10 57 -38
15 -39 14 -56 -40z m58 19 c10 -17 -13 -36 -27 -22 -12 12 -4 33 11 33 5 0 12
-5 16 -11z"/>
<path d="M468 1294 l-3 -36 -27 21 c-16 13 -29 17 -33 11 -8 -13 44 -102 56
-94 5 3 2 16 -7 30 -9 13 -12 24 -6 24 6 0 14 -4 17 -10 12 -19 25 -10 25 18
l1 27 15 -28 c8 -15 19 -25 24 -22 10 6 -37 95 -50 95 -5 0 -10 -16 -12 -36z"/>
<path d="M1017 1303 c-12 -11 -8 -36 10 -55 21 -23 9 -36 -18 -19 -28 16 -40
4 -14 -15 24 -18 44 -15 59 8 8 13 6 22 -9 37 -22 25 -12 40 15 23 22 -13 27
-3 8 16 -13 13 -41 16 -51 5z"/>
<path d="M1140 1231 c0 -5 6 -11 13 -14 8 -3 0 -17 -22 -41 -19 -19 -31 -39
-27 -43 4 -4 20 7 35 26 19 23 33 32 45 28 23 -9 20 6 -7 31 -25 23 -37 28
-37 13z"/>
<path d="M300 1201 c0 -18 43 -101 53 -101 5 0 7 6 4 14 -7 17 23 45 41 39 6
-3 12 0 12 5 0 8 -19 18 -97 49 -7 3 -13 0 -13 -6z m58 -40 c3 -8 -1 -12 -9
-9 -7 2 -15 10 -17 17 -3 8 1 12 9 9 7 -2 15 -10 17 -17z"/>
<path d="M250 1013 c-82 -27 -90 -49 -90 -268 0 -197 8 -233 59 -259 38 -20
81 -20 127 -1 42 17 64 63 64 135 l0 50 -40 0 -40 0 0 -55 c0 -49 -3 -57 -25
-67 -21 -9 -28 -8 -45 7 -19 17 -20 31 -20 190 0 179 4 195 45 195 32 0 45
-20 45 -67 l0 -43 40 0 40 0 0 46 c0 25 -7 61 -16 79 -23 49 -90 76 -144 58z"/>
<path d="M795 1013 c-45 -11 -85 -73 -85 -130 1 -45 35 -109 86 -158 88 -84
107 -139 60 -170 -36 -24 -64 -6 -68 43 -3 35 -5 37 -40 40 -37 3 -38 3 -38
-33 0 -82 49 -135 125 -135 76 0 125 53 125 135 0 56 -23 97 -92 167 -69 69
-84 101 -68 142 17 46 80 29 80 -21 0 -20 5 -23 40 -23 36 0 40 2 40 26 0 85
-75 139 -165 117z"/>
<path d="M520 745 l0 -265 40 0 40 0 0 265 0 265 -40 0 -40 0 0 -265z"/>
<path d="M1070 745 l0 -265 113 0 112 0 1 35 1 35 -74 0 -73 0 0 80 0 80 61 0
60 0 -3 37 -3 36 -55 1 -55 1 -3 78 -3 77 76 0 76 0 -3 35 -2 35 -113 0 -113
0 0 -265z"/>
<path d="M1041 356 l-22 -23 36 -32 c42 -37 49 -38 69 -9 19 27 10 40 -10 14
-11 -16 -17 -17 -26 -8 -9 9 -9 15 0 24 20 20 13 32 -8 13 -25 -22 -39 -12
-21 16 18 30 8 33 -18 5z"/>
<path d="M371 346 c-19 -20 -21 -28 -12 -45 7 -12 21 -21 33 -21 12 0 18 3 14
8 -4 4 -13 7 -19 7 -23 0 -17 32 8 49 27 18 50 13 41 -10 -3 -7 0 -16 5 -20 7
-4 9 5 7 22 -4 39 -44 45 -77 10z"/>
<path d="M470 258 c-37 -61 20 -94 63 -37 15 22 17 30 8 48 -17 31 -48 26 -71
-11z m60 2 c0 -16 -31 -60 -41 -60 -19 0 -21 31 -4 50 19 21 45 27 45 10z"/>
<path d="M955 276 c-38 -27 13 -105 53 -80 21 13 25 34 12 54 -8 13 -12 13
-27 -4 -17 -18 -17 -19 0 -12 14 4 18 2 15 -11 -5 -26 -24 -26 -42 2 -19 29
-14 45 15 45 11 0 17 5 14 10 -8 14 -18 13 -40 -4z"/>
<path d="M591 196 c-6 -25 -11 -47 -11 -49 0 -3 14 -10 30 -16 17 -5 30 -6 30
-1 0 5 -9 12 -21 15 -21 7 -21 16 -3 78 3 9 1 17 -4 17 -5 0 -15 -20 -21 -44z"/>
<path d="M843 230 c-20 -8 -21 -12 -12 -47 17 -65 15 -63 49 -52 16 6 30 15
30 20 0 5 -11 4 -24 -1 -18 -6 -26 -5 -30 5 -3 8 3 17 15 20 28 9 23 23 -6 17
-15 -2 -25 0 -25 7 0 6 11 16 25 21 14 5 25 12 25 15 0 7 -22 5 -47 -5z"/>
<path d="M710 165 c0 -54 0 -55 29 -55 17 0 33 5 36 10 4 6 -5 10 -19 10 -24
0 -26 3 -26 45 0 25 -4 45 -10 45 -5 0 -10 -25 -10 -55z"/>
</g>
</svg>
