<?xml version="1.0" standalone="no"?>
<!DOCTYPE svg PUBLIC "-//W3C//DTD SVG 20010904//EN"
 "http://www.w3.org/TR/2001/REC-SVG-20010904/DTD/svg10.dtd">
<svg version="1.0" xmlns="http://www.w3.org/2000/svg"
 width="150.000000pt" height="150.000000pt" viewBox="0 0 150.000000 150.000000"
 preserveAspectRatio="xMidYMid meet">
<metadata>
Created by potrace 1.15, written by Peter Selinger 2001-2017
</metadata>
<g transform="translate(0.000000,150.000000) scale(0.100000,-0.100000)"
fill="#000000" stroke="none">
<path d="M250 1013 c-82 -27 -90 -49 -90 -268 0 -197 8 -233 59 -259 38 -20
81 -20 127 -1 42 17 64 63 64 135 l0 50 -40 0 -40 0 0 -55 c0 -49 -3 -57 -25
-67 -21 -9 -28 -8 -45 7 -19 17 -20 31 -20 190 0 179 4 195 45 195 32 0 45
-20 45 -67 l0 -43 40 0 40 0 0 46 c0 25 -7 61 -16 79 -23 49 -90 76 -144 58z"/>
<path d="M795 1013 c-45 -11 -85 -73 -85 -130 1 -45 35 -109 86 -158 88 -84
107 -139 60 -170 -36 -24 -64 -6 -68 43 -3 35 -5 37 -40 40 -37 3 -38 3 -38
-33 0 -82 49 -135 125 -135 76 0 125 53 125 135 0 56 -23 97 -92 167 -69 69
-84 101 -68 142 17 46 80 29 80 -21 0 -20 5 -23 40 -23 36 0 40 2 40 26 0 85
-75 139 -165 117z"/>
<path d="M520 745 l0 -265 40 0 40 0 0 265 0 265 -40 0 -40 0 0 -265z"/>
<path d="M1070 745 l0 -265 113 0 112 0 1 35 1 35 -74 0 -73 0 0 80 0 80 61 0
60 0 -3 37 -3 36 -55 1 -55 1 -3 78 -3 77 76 0 76 0 -3 35 -2 35 -113 0 -113
0 0 -265z"/>
</g>
</svg>
